<svg viewBox="0 0 268 268" fill="none" xmlns="http://www.w3.org/2000/svg">
    <path
        d="M255.687 123.087H216.147C209.436 123.087 203.985 117.647 203.985 110.923V43.3519C203.985 36.6401 198.546 31.1874 191.823 31.1874H158.064C151.354 31.1874 145.903 25.7471 145.903 19.023V12.1644C145.903 5.45261 140.464 0 133.741 0C127.019 0 121.579 5.44038 121.579 12.1644V84.4054C121.579 91.1172 116.14 96.5698 109.418 96.5698H42.9751C36.2648 96.5698 30.8135 102.022 30.8135 108.734V110.923C30.8135 117.635 25.3744 123.087 18.6519 123.087H12.1616C5.45133 123.087 0 128.528 0 135.252C0 141.976 5.43911 147.416 12.1616 147.416H67.9461C74.6564 147.416 80.1077 152.856 80.1077 159.58V208.397C80.1077 215.109 85.5468 220.562 92.2693 220.562H109.418C116.128 220.562 121.579 226.002 121.579 232.726V255.747C121.579 262.459 127.019 267.911 133.741 267.911C140.464 267.911 145.903 262.471 145.903 255.747V159.593C145.903 152.881 151.342 147.428 158.064 147.428H255.675C262.385 147.428 267.837 141.988 267.837 135.264C267.837 128.54 262.397 123.099 255.675 123.099"
        fill="#7F7F7F" />
</svg>